[
  {
    "duration_time": "0.064000",
    "pts_time": "0.000000"
  },
  {
    "duration_time": "0.064000",
    "pts_time": "0.064000"
  },
  {
    "duration_time": "0.064000",
    "pts_time": "0.128000"
  },
  {
    "duration_time": "0.064000",
    "pts_time": "0.192000"
  },
  {
    "duration_time": "0.064000",
    "pts_time": "0.256000"
  },
  {
    "duration_time": "0.064000",
    "pts_time": "0.320000"
  },
  {
    "duration_time": "0.064000",
    "pts_time": "0.384000"
  },
  {
    "duration_time": "0.064000",
    "pts_time": "0.448000"
  },
  {
    "duration_time": "0.064000",
    "pts_time": "0.512000"
  },
  {
    "duration_time": "0.064000",
    "pts_time": "0.576000"
  },
  {
    "duration_time": "0.064000",
    "pts_time": "0.640000"
  },
  {
    "duration_time": "0.064000",
    "pts_time": "0.704000"
  },
  {
    "duration_time": "0.064000",
    "pts_time": "0.768000"
  },
  {
    "duration_time": "0.064000",
    "pts_time": "0.832000"
  },
  {
    "duration_time": "0.064000",
    "pts_time": "0.896000"
  },
  {
    "duration_time": "0.064000",
    "pts_time": "0.960000"
  },
  {
    "duration_time": "0.064000",
    "pts_time": "1.024000"
  },
  {
    "duration_time": "0.064000",
    "pts_time": "1.088000"
  },
  {
    "duration_time": "0.064000",
    "pts_time": "1.152000"
  },
  {
    "duration_time": "0.064000",
    "pts_time": "1.216000"
  },
  {
    "duration_time": "0.064000",
    "pts_time": "1.280000"
  },
  {
    "duration_time": "0.064000",
    "pts_time": "1.344000"
  },
  {
    "duration_time": "0.064000",
    "pts_time": "1.408000"
  },
  {
    "duration_time": "0.064000",
    "pts_time": "1.472000"
  },
  {
    "duration_time": "0.064000",
    "pts_time": "1.536000"
  },
  {
    "duration_time": "0.064000",
    "pts_time": "1.600000"
  },
  {
    "duration_time": "0.064000",
    "pts_time": "1.664000"
  },
  {
    "duration_time": "0.064000",
    "pts_time": "1.728000"
  },
  {
    "duration_time": "0.064000",
    "pts_time": "1.792000"
  },
  {
    "duration_time": "0.064000",
    "pts_time": "1.856000"
  },
  {
    "duration_time": "0.064000",
    "pts_time": "1.920000"
  },
  {
    "duration_time": "0.064000",
    "pts_time": "1.984000"
  },
  {
    "duration_time": "0.064000",
    "pts_time": "2.048000"
  },
  {
    "duration_time": "0.064000",
    "pts_time": "2.112000"
  },
  {
    "duration_time": "0.064000",
    "pts_time": "2.176000"
  },
  {
    "duration_time": "0.064000",
    "pts_time": "2.240000"
  },
  {
    "duration_time": "0.064000",
    "pts_time": "2.304000"
  },
  {
    "duration_time": "0.064000",
    "pts_time": "2.368000"
  },
  {
    "duration_time": "0.064000",
    "pts_time": "2.432000"
  },
  {
    "duration_time": "0.064000",
    "pts_time": "2.496000"
  },
  {
    "duration_time": "0.064000",
    "pts_time": "2.560000"
  },
  {
    "duration_time": "0.064000",
    "pts_time": "2.624000"
  },
  {
    "duration_time": "0.064000",
    "pts_time": "2.688000"
  },
  {
    "duration_time": "0.064000",
    "pts_time": "2.752000"
  },
  {
    "duration_time": "0.064000",
    "pts_time": "2.816000"
  },
  {
    "duration_time": "0.064000",
    "pts_time": "2.880000"
  },
  {
    "duration_time": "0.064000",
    "pts_time": "2.944000"
  },
  {
    "duration_time": "0.064000",
    "pts_time": "3.008000"
  },
  {
    "duration_time": "0.064000",
    "pts_time": "3.072000"
  },
  {
    "duration_time": "0.064000",
    "pts_time": "3.136000"
  },
  {
    "duration_time": "0.064000",
    "pts_time": "3.200000"
  },
  {
    "duration_time": "0.064000",
    "pts_time": "3.264000"
  },
  {
    "duration_time": "0.064000",
    "pts_time": "3.328000"
  },
  {
    "duration_time": "0.064000",
    "pts_time": "3.392000"
  },
  {
    "duration_time": "0.064000",
    "pts_time": "3.456000"
  },
  {
    "duration_time": "0.064000",
    "pts_time": "3.520000"
  },
  {
    "duration_time": "0.064000",
    "pts_time": "3.584000"
  },
  {
    "duration_time": "0.064000",
    "pts_time": "3.648000"
  },
  {
    "duration_time": "0.064000",
    "pts_time": "3.712000"
  },
  {
    "duration_time": "0.064000",
    "pts_time": "3.776000"
  },
  {
    "duration_time": "0.064000",
    "pts_time": "3.840000"
  },
  {
    "duration_time": "0.064000",
    "pts_time": "3.904000"
  },
  {
    "duration_time": "0.064000",
    "pts_time": "3.968000"
  },
  {
    "duration_time": "0.064000",
    "pts_time": "4.032000"
  },
  {
    "duration_time": "0.064000",
    "pts_time": "4.096000"
  },
  {
    "duration_time": "0.064000",
    "pts_time": "4.160000"
  },
  {
    "duration_time": "0.064000",
    "pts_time": "4.224000"
  },
  {
    "duration_time": "0.064000",
    "pts_time": "4.288000"
  },
  {
    "duration_time": "0.064000",
    "pts_time": "4.352000"
  },
  {
    "duration_time": "0.064000",
    "pts_time": "4.416000"
  },
  {
    "duration_time": "0.064000",
    "pts_time": "4.480000"
  },
  {
    "duration_time": "0.064000",
    "pts_time": "4.544000"
  },
  {
    "duration_time": "0.064000",
    "pts_time": "4.608000"
  },
  {
    "duration_time": "0.064000",
    "pts_time": "4.672000"
  },
  {
    "duration_time": "0.064000",
    "pts_time": "4.736000"
  },
  {
    "duration_time": "0.064000",
    "pts_time": "4.800000"
  },
  {
    "duration_time": "0.064000",
    "pts_time": "4.864000"
  },
  {
    "duration_time": "0.064000",
    "pts_time": "4.928000"
  },
  {
    "duration_time": "0.064000",
    "pts_time": "4.992000"
  },
  {
    "duration_time": "0.064000",
    "pts_time": "5.056000"
  },
  {
    "duration_time": "0.064000",
    "pts_time": "5.120000"
  },
  {
    "duration_time": "0.064000",
    "pts_time": "5.184000"
  },
  {
    "duration_time": "0.064000",
    "pts_time": "5.248000"
  },
  {
    "duration_time": "0.064000",
    "pts_time": "5.312000"
  },
  {
    "duration_time": "0.064000",
    "pts_time": "5.376000"
  },
  {
    "duration_time": "0.064000",
    "pts_time": "5.440000"
  },
  {
    "duration_time": "0.064000",
    "pts_time": "5.504000"
  },
  {
    "duration_time": "0.064000",
    "pts_time": "5.568000"
  },
  {
    "duration_time": "0.064000",
    "pts_time": "5.632000"
  },
  {
    "duration_time": "0.064000",
    "pts_time": "5.696000"
  },
  {
    "duration_time": "0.064000",
    "pts_time": "5.760000"
  },
  {
    "duration_time": "0.064000",
    "pts_time": "5.824000"
  },
  {
    "duration_time": "0.064000",
    "pts_time": "5.888000"
  },
  {
    "duration_time": "0.064000",
    "pts_time": "5.952000"
  },
  {
    "duration_time": "0.064000",
    "pts_time": "6.016000"
  },
  {
    "duration_time": "0.064000",
    "pts_time": "6.080000"
  },
  {
    "duration_time": "0.064000",
    "pts_time": "6.144000"
  },
  {
    "duration_time": "0.064000",
    "pts_time": "6.208000"
  },
  {
    "duration_time": "0.064000",
    "pts_time": "6.272000"
  },
  {
    "duration_time": "0.064000",
    "pts_time": "6.336000"
  },
  {
    "duration_time": "0.064000",
    "pts_time": "6.400000"
  },
  {
    "duration_time": "0.064000",
    "pts_time": "6.464000"
  },
  {
    "duration_time": "0.064000",
    "pts_time": "6.528000"
  },
  {
    "duration_time": "0.064000",
    "pts_time": "6.592000"
  },
  {
    "duration_time": "0.064000",
    "pts_time": "6.656000"
  },
  {
    "duration_time": "0.064000",
    "pts_time": "6.720000"
  },
  {
    "duration_time": "0.064000",
    "pts_time": "6.784000"
  },
  {
    "duration_time": "0.064000",
    "pts_time": "6.848000"
  },
  {
    "duration_time": "0.064000",
    "pts_time": "6.912000"
  },
  {
    "duration_time": "0.064000",
    "pts_time": "6.976000"
  },
  {
    "duration_time": "0.064000",
    "pts_time": "7.040000"
  },
  {
    "duration_time": "0.064000",
    "pts_time": "7.104000"
  },
  {
    "duration_time": "0.064000",
    "pts_time": "7.168000"
  },
  {
    "duration_time": "0.064000",
    "pts_time": "7.232000"
  },
  {
    "duration_time": "0.064000",
    "pts_time": "7.296000"
  },
  {
    "duration_time": "0.064000",
    "pts_time": "7.360000"
  },
  {
    "duration_time": "0.064000",
    "pts_time": "7.424000"
  },
  {
    "duration_time": "0.064000",
    "pts_time": "7.488000"
  },
  {
    "duration_time": "0.064000",
    "pts_time": "7.552000"
  },
  {
    "duration_time": "0.064000",
    "pts_time": "7.616000"
  },
  {
    "duration_time": "0.064000",
    "pts_time": "7.680000"
  },
  {
    "duration_time": "0.064000",
    "pts_time": "7.744000"
  },
  {
    "duration_time": "0.064000",
    "pts_time": "7.808000"
  },
  {
    "duration_time": "0.064000",
    "pts_time": "7.872000"
  },
  {
    "duration_time": "0.064000",
    "pts_time": "7.936000"
  },
  {
    "duration_time": "0.064000",
    "pts_time": "8.000000"
  },
  {
    "duration_time": "0.064000",
    "pts_time": "8.064000"
  },
  {
    "duration_time": "0.064000",
    "pts_time": "8.128000"
  },
  {
    "duration_time": "0.064000",
    "pts_time": "8.192000"
  },
  {
    "duration_time": "0.064000",
    "pts_time": "8.256000"
  },
  {
    "duration_time": "0.064000",
    "pts_time": "8.320000"
  },
  {
    "duration_time": "0.064000",
    "pts_time": "8.384000"
  },
  {
    "duration_time": "0.064000",
    "pts_time": "8.448000"
  },
  {
    "duration_time": "0.064000",
    "pts_time": "8.512000"
  },
  {
    "duration_time": "0.064000",
    "pts_time": "8.576000"
  },
  {
    "duration_time": "0.064000",
    "pts_time": "8.640000"
  },
  {
    "duration_time": "0.064000",
    "pts_time": "8.704000"
  },
  {
    "duration_time": "0.064000",
    "pts_time": "8.768000"
  },
  {
    "duration_time": "0.064000",
    "pts_time": "8.832000"
  },
  {
    "duration_time": "0.064000",
    "pts_time": "8.896000"
  },
  {
    "duration_time": "0.064000",
    "pts_time": "8.960000"
  },
  {
    "duration_time": "0.064000",
    "pts_time": "9.024000"
  },
  {
    "duration_time": "0.064000",
    "pts_time": "9.088000"
  },
  {
    "duration_time": "0.064000",
    "pts_time": "9.152000"
  },
  {
    "duration_time": "0.064000",
    "pts_time": "9.216000"
  },
  {
    "duration_time": "0.064000",
    "pts_time": "9.280000"
  },
  {
    "duration_time": "0.064000",
    "pts_time": "9.344000"
  },
  {
    "duration_time": "0.064000",
    "pts_time": "9.408000"
  },
  {
    "duration_time": "0.064000",
    "pts_time": "9.472000"
  },
  {
    "duration_time": "0.064000",
    "pts_time": "9.536000"
  },
  {
    "duration_time": "0.064000",
    "pts_time": "9.600000"
  },
  {
    "duration_time": "0.064000",
    "pts_time": "9.664000"
  },
  {
    "duration_time": "0.064000",
    "pts_time": "9.728000"
  },
  {
    "duration_time": "0.064000",
    "pts_time": "9.792000"
  },
  {
    "duration_time": "0.064000",
    "pts_time": "9.856000"
  },
  {
    "duration_time": "0.064000",
    "pts_time": "9.920000"
  },
  {
    "duration_time": "0.064000",
    "pts_time": "9.984000"
  },
  {
    "duration_time": "0.064000",
    "pts_time": "10.048000"
  },
  {
    "duration_time": "0.064000",
    "pts_time": "10.112000"
  },
  {
    "duration_time": "0.064000",
    "pts_time": "10.176000"
  },
  {
    "duration_time": "0.064000",
    "pts_time": "10.240000"
  },
  {
    "duration_time": "0.064000",
    "pts_time": "10.304000"
  },
  {
    "duration_time": "0.064000",
    "pts_time": "10.368000"
  },
  {
    "duration_time": "0.064000",
    "pts_time": "10.432000"
  },
  {
    "duration_time": "0.064000",
    "pts_time": "10.496000"
  },
  {
    "duration_time": "0.064000",
    "pts_time": "10.560000"
  },
  {
    "duration_time": "0.064000",
    "pts_time": "10.624000"
  },
  {
    "duration_time": "0.064000",
    "pts_time": "10.688000"
  },
  {
    "duration_time": "0.064000",
    "pts_time": "10.752000"
  },
  {
    "duration_time": "0.064000",
    "pts_time": "10.816000"
  },
  {
    "duration_time": "0.064000",
    "pts_time": "10.880000"
  },
  {
    "duration_time": "0.064000",
    "pts_time": "10.944000"
  },
  {
    "duration_time": "0.064000",
    "pts_time": "11.008000"
  },
  {
    "duration_time": "0.064000",
    "pts_time": "11.072000"
  },
  {
    "duration_time": "0.064000",
    "pts_time": "11.136000"
  },
  {
    "duration_time": "0.064000",
    "pts_time": "11.200000"
  },
  {
    "duration_time": "0.064000",
    "pts_time": "11.264000"
  },
  {
    "duration_time": "0.064000",
    "pts_time": "11.328000"
  },
  {
    "duration_time": "0.064000",
    "pts_time": "11.392000"
  },
  {
    "duration_time": "0.064000",
    "pts_time": "11.456000"
  },
  {
    "duration_time": "0.064000",
    "pts_time": "11.520000"
  },
  {
    "duration_time": "0.064000",
    "pts_time": "11.584000"
  },
  {
    "duration_time": "0.064000",
    "pts_time": "11.648000"
  },
  {
    "duration_time": "0.064000",
    "pts_time": "11.712000"
  },
  {
    "duration_time": "0.064000",
    "pts_time": "11.776000"
  },
  {
    "duration_time": "0.064000",
    "pts_time": "11.840000"
  },
  {
    "duration_time": "0.064000",
    "pts_time": "11.904000"
  },
  {
    "duration_time": "0.064000",
    "pts_time": "11.968000"
  },
  {
    "duration_time": "0.064000",
    "pts_time": "12.032000"
  },
  {
    "duration_time": "0.064000",
    "pts_time": "12.096000"
  },
  {
    "duration_time": "0.064000",
    "pts_time": "12.160000"
  },
  {
    "duration_time": "0.064000",
    "pts_time": "12.224000"
  },
  {
    "duration_time": "0.064000",
    "pts_time": "12.288000"
  },
  {
    "duration_time": "0.064000",
    "pts_time": "12.352000"
  },
  {
    "duration_time": "0.064000",
    "pts_time": "12.416000"
  },
  {
    "duration_time": "0.064000",
    "pts_time": "12.480000"
  },
  {
    "duration_time": "0.064000",
    "pts_time": "12.544000"
  },
  {
    "duration_time": "0.064000",
    "pts_time": "12.608000"
  },
  {
    "duration_time": "0.064000",
    "pts_time": "12.672000"
  },
  {
    "duration_time": "0.064000",
    "pts_time": "12.736000"
  },
  {
    "duration_time": "0.064000",
    "pts_time": "12.800000"
  },
  {
    "duration_time": "0.064000",
    "pts_time": "12.864000"
  },
  {
    "duration_time": "0.064000",
    "pts_time": "12.928000"
  },
  {
    "duration_time": "0.064000",
    "pts_time": "12.992000"
  }
]
